<svg width="16" height="17" viewBox="0 0 16 17" fill="none" xmlns="http://www.w3.org/2000/svg">
<circle cx="8" cy="8.5" r="7" stroke="black" stroke-width="1.7" stroke-linecap="round" stroke-linejoin="round"/>
<path d="M8.77756 1.53735C8.50689 1.76516 8.26303 2.034 8.05554 2.342C6.8556 4.12331 7.32688 6.5401 9.10819 7.74004C9.2488 7.83476 9.39337 7.91907 9.54098 7.99314C11.1109 8.78087 11.7102 7.71918 12.5602 8.29176C13.1116 8.66317 13.2575 9.41122 12.8861 9.96257C12.4968 10.5404 11.8887 10.8333 11.9939 11.7797C12.0533 12.3138 12.3814 12.7741 12.8067 13.1666" stroke="black" stroke-width="1.7" stroke-linecap="round" stroke-linejoin="round"/>
<path d="M1.77734 6.38452C2.61881 6.5893 3.39746 7.07502 3.9598 7.82023C4.55921 8.61456 4.80768 9.56434 4.73122 10.4837C4.69073 10.9706 5.00827 11.462 5.41688 11.7299C5.61431 11.8593 5.79319 12.0243 5.94355 12.2236C6.60934 13.1059 6.47649 14.342 5.66623 15.0651" stroke="black" stroke-width="1.7" stroke-linecap="round" stroke-linejoin="round"/>
</svg>
