<svg width="60" height="60" viewBox="0 0 60 60" fill="none" xmlns="http://www.w3.org/2000/svg">
<circle cx="30" cy="30" r="29.25" stroke="#333333" stroke-width="1.5"/>
<path d="M25.8819 22.9185H24C22.8954 22.9185 22 23.8139 22 24.9185V36.2661C22 37.3707 22.8954 38.2661 24 38.2661H25.8819M31.7047 22.9185H33.5865C34.6911 22.9185 35.5865 23.8139 35.5865 24.9185V26.7554" stroke="#333333" stroke-width="1.5" stroke-linecap="round" stroke-linejoin="round"/>
<path d="M31.5989 37.6294L29.4873 38.0468L29.9096 35.9597C29.9486 35.7672 30.0443 35.5905 30.1847 35.4517L34.1307 31.5513L36.0717 29.6328L37.9998 31.5387L36.0589 33.4571L32.1129 37.3575C31.9725 37.4963 31.7937 37.5909 31.5989 37.6294Z" stroke="#333333" stroke-width="1.5" stroke-linecap="round" stroke-linejoin="round"/>
<path d="M25.882 23C25.882 21.8954 26.7774 21 27.882 21H29.7048C30.8093 21 31.7048 21.8954 31.7048 23V24.8369H25.882V23Z" stroke="#333333" stroke-width="1.5" stroke-linecap="round" stroke-linejoin="round"/>
</svg>
