<svg width="18" height="18" viewBox="0 0 18 18" fill="none" xmlns="http://www.w3.org/2000/svg">
<path d="M10.7773 13.8889C10.7773 12.8525 10.7773 12.3344 10.9647 11.9325C11.1634 11.5064 11.506 11.1639 11.9321 10.9652C12.334 10.7778 12.8521 10.7778 13.8885 10.7778V10.7778V10.7778C14.9248 10.7778 15.443 10.7778 15.8448 10.9652C16.271 11.1639 16.6135 11.5064 16.8122 11.9325C16.9996 12.3344 16.9996 12.8525 16.9996 13.8889V13.8889V13.8889C16.9996 14.9252 16.9996 15.4434 16.8122 15.8452C16.6135 16.2714 16.271 16.6139 15.8448 16.8126C15.443 17 14.9248 17 13.8885 17V17V17C12.8521 17 12.334 17 11.9321 16.8126C11.506 16.6139 11.1634 16.2714 10.9647 15.8452C10.7773 15.4434 10.7773 14.9252 10.7773 13.8889V13.8889V13.8889Z" stroke="black" stroke-width="2"/>
<path d="M1 13.8889C1 12.8525 1 12.3344 1.18738 11.9325C1.3861 11.5064 1.72861 11.1639 2.15476 10.9652C2.55661 10.7778 3.07478 10.7778 4.11111 10.7778V10.7778V10.7778C5.14745 10.7778 5.66561 10.7778 6.06746 10.9652C6.49361 11.1639 6.83612 11.5064 7.03484 11.9325C7.22222 12.3344 7.22222 12.8525 7.22222 13.8889V13.8889V13.8889C7.22222 14.9252 7.22222 15.4434 7.03484 15.8452C6.83612 16.2714 6.49361 16.6139 6.06746 16.8126C5.66561 17 5.14745 17 4.11111 17V17V17C3.07478 17 2.55661 17 2.15476 16.8126C1.72861 16.6139 1.3861 16.2714 1.18738 15.8452C1 15.4434 1 14.9252 1 13.8889V13.8889V13.8889Z" stroke="black" stroke-width="2"/>
<path d="M1 4.11111C1 3.07478 1 2.55661 1.18738 2.15476C1.3861 1.72861 1.72861 1.3861 2.15476 1.18738C2.55661 1 3.07478 1 4.11111 1V1V1C5.14745 1 5.66561 1 6.06746 1.18738C6.49361 1.3861 6.83612 1.72861 7.03484 2.15476C7.22222 2.55661 7.22222 3.07478 7.22222 4.11111V4.11111V4.11111C7.22222 5.14745 7.22222 5.66561 7.03484 6.06746C6.83612 6.49361 6.49361 6.83612 6.06746 7.03484C5.66561 7.22222 5.14745 7.22222 4.11111 7.22222V7.22222V7.22222C3.07478 7.22222 2.55661 7.22222 2.15476 7.03484C1.72861 6.83612 1.3861 6.49361 1.18738 6.06746C1 5.66561 1 5.14745 1 4.11111V4.11111V4.11111Z" stroke="black" stroke-width="2"/>
<path d="M10.7773 4.11111H16.9996" stroke="black" stroke-width="2" stroke-linecap="round" stroke-linejoin="round"/>
<path d="M13.8887 1V7.22222" stroke="black" stroke-width="2" stroke-linecap="round" stroke-linejoin="round"/>
</svg>
