<svg width="20" height="20" viewBox="0 0 20 20" fill="none" xmlns="http://www.w3.org/2000/svg">
<path d="M19 12C19 12.5523 18.5523 13 18 13H15L15 1H18C18.5523 1 19 1.44772 19 2V12Z" stroke="#333333" stroke-width="2" stroke-linecap="round" stroke-linejoin="round"/>
<path d="M15 11L15 3L13.0077 1.6718C12.3506 1.23375 11.5786 1 10.7889 1L5.54138 1C4.07486 1 2.82329 2.06024 2.5822 3.5068L1.38813 10.6712C1.18496 11.8903 2.12504 13 3.36092 13L8 13" stroke="#333333" stroke-width="2" stroke-linecap="round" stroke-linejoin="round"/>
<path d="M8 13L7.31283 16.4358C7.13411 17.3294 7.64876 18.2163 8.51327 18.5044V18.5044C9.36635 18.7888 10.2987 18.4026 10.7008 17.5983L14 11H15" stroke="#333333" stroke-width="2" stroke-linecap="round" stroke-linejoin="round"/>
</svg>
