<svg width="18" height="14" viewBox="0 0 18 14" fill="none" xmlns="http://www.w3.org/2000/svg">
<path d="M16.8892 7.58662L15.9583 7.22129L16.8892 7.58662ZM2.04182 6.77875C3.14299 3.97291 5.84851 2 9.00006 2V0C4.98863 0 1.56788 2.51188 0.180068 6.04809L2.04182 6.77875ZM9.00006 2C12.1516 2 14.8571 3.97291 15.9583 6.77875L17.8201 6.04809C16.4322 2.51188 13.0115 0 9.00006 0V2ZM15.9583 7.22129C14.8571 10.0271 12.1516 12 9.00006 12V14C13.0115 14 16.4322 11.4882 17.8201 7.95195L15.9583 7.22129ZM9.00006 12C5.84851 12 3.14299 10.0271 2.04182 7.22129L0.180068 7.95195C1.56788 11.4882 4.98863 14 9.00006 14V12ZM15.9583 6.77875C16.0141 6.92084 16.0141 7.0792 15.9583 7.22129L17.8201 7.95195C18.0601 7.34019 18.0601 6.65985 17.8201 6.04809L15.9583 6.77875ZM0.180068 6.04809C-0.0600227 6.65985 -0.0600227 7.34018 0.180068 7.95195L2.04182 7.22129C1.98606 7.07919 1.98606 6.92084 2.04182 6.77875L0.180068 6.04809Z" fill="#333333"/>
<ellipse cx="9.00012" cy="6.9999" rx="2.54504" ry="2.57143" stroke="#333333" stroke-width="2" stroke-linecap="round" stroke-linejoin="round"/>
</svg>
