<svg width="16" height="18" viewBox="0 0 16 18" fill="none" xmlns="http://www.w3.org/2000/svg">
<path d="M4.39664 2.70532H3C1.89543 2.70532 1 3.60075 1 4.70532V14.3477C1 15.4523 1.89543 16.3477 3 16.3477H4.39664M9.49159 2.70532H10.8882C11.9928 2.70532 12.8882 3.60075 12.8882 4.70532V6.11591" stroke="white" stroke-width="2" stroke-linecap="round" stroke-linejoin="round"/>
<path d="M9.36387 15.7889L7.55121 16.153L7.91375 14.3328C7.95238 14.1389 8.04734 13.9607 8.18665 13.8208L11.6142 10.3791L13.3125 8.67383L14.9997 10.3679L13.3013 12.0732L9.87382 15.5149C9.73451 15.6548 9.55707 15.7501 9.36387 15.7889Z" stroke="white" stroke-width="2" stroke-linecap="round" stroke-linejoin="round"/>
<path d="M4.39648 3C4.39648 1.89543 5.29192 1 6.39648 1H7.49144C8.59601 1 9.49144 1.89543 9.49144 3V4.41059H4.39648V3Z" stroke="white" stroke-width="2" stroke-linecap="round" stroke-linejoin="round"/>
</svg>
