<svg width="18" height="18" viewBox="0 0 18 18" fill="none" xmlns="http://www.w3.org/2000/svg">
<path d="M1.88867 11.6667L16.1109 11.6667" stroke="#333333" stroke-width="2" stroke-linecap="round" stroke-linejoin="round"/>
<path d="M1.88867 6.33333L16.1109 6.33333" stroke="#333333" stroke-width="2" stroke-linecap="round" stroke-linejoin="round"/>
<circle cx="9" cy="9" r="8" stroke="#333333" stroke-width="2" stroke-linecap="round" stroke-linejoin="round"/>
<path d="M9.00078 16.8384L8.28654 17.5383C8.47463 17.7303 8.73205 17.8384 9.00078 17.8384C9.26952 17.8384 9.52694 17.7303 9.71502 17.5383L9.00078 16.8384ZM9.00078 1.16167L9.71502 0.461767C9.52694 0.269827 9.26951 0.161667 9.00078 0.161667C8.73205 0.161667 8.47463 0.269827 8.28654 0.461767L9.00078 1.16167ZM11.2008 9.00004C11.2008 11.7796 10.0903 14.2978 8.28654 16.1385L9.71502 17.5383C11.8703 15.3389 13.2008 12.3239 13.2008 9.00004H11.2008ZM8.28654 1.86157C10.0903 3.70229 11.2008 6.22048 11.2008 9.00004H13.2008C13.2008 5.67622 11.8703 2.66117 9.71502 0.461767L8.28654 1.86157ZM6.80078 9.00004C6.80078 6.22048 7.91126 3.70229 9.71502 1.86157L8.28654 0.461767C6.1313 2.66117 4.80078 5.67622 4.80078 9.00004H6.80078ZM9.71502 16.1385C7.91126 14.2978 6.80078 11.7796 6.80078 9.00004H4.80078C4.80078 12.3239 6.1313 15.3389 8.28654 17.5383L9.71502 16.1385Z" fill="#333333"/>
</svg>
