<svg width="20" height="20" viewBox="0 0 20 20" fill="none" xmlns="http://www.w3.org/2000/svg">
<path d="M1 8C1 7.44772 1.44772 7 2 7H5V19H2C1.44772 19 1 18.5523 1 18V8Z" stroke="#333333" stroke-width="2" stroke-linecap="round" stroke-linejoin="round"/>
<path d="M5 9V17L6.9923 18.3282C7.64937 18.7662 8.4214 19 9.2111 19H14.4586C15.9251 19 17.1767 17.9398 17.4178 16.4932L18.6119 9.3288C18.815 8.10973 17.875 7 16.6391 7H12" stroke="#333333" stroke-width="2" stroke-linecap="round" stroke-linejoin="round"/>
<path d="M12 7L12.6872 3.56415C12.8659 2.67057 12.3512 1.78375 11.4867 1.49558V1.49558C10.6336 1.21122 9.7013 1.59741 9.29915 2.4017L6 9H5" stroke="#333333" stroke-width="2" stroke-linecap="round" stroke-linejoin="round"/>
</svg>
