<svg width="17" height="20" viewBox="0 0 17 20" fill="none" xmlns="http://www.w3.org/2000/svg">
<path d="M8 2.5C5.23858 2.5 3 4.73858 3 7.5V10.2564C3 11.104 2.40857 11.8195 1.82474 12.434C1.31363 12.972 1 13.6994 1 14.5C1 15.0523 1.44772 15.5 2 15.5H14C14.5523 15.5 15 15.0523 15 14.5C15 13.6994 14.6864 12.972 14.1753 12.434C13.5914 11.8195 13 11.104 13 10.2564V7.5C13 4.73858 10.7614 2.5 8 2.5ZM8 2.5V1.5M9.79759 18.3767C9.63122 18.7179 9.37122 19.0046 9.04797 19.2035C8.72472 19.4023 8.35156 19.5051 7.97208 19.4998C7.59259 19.4945 7.22244 19.3813 6.90487 19.1735C6.5873 18.9657 6.33542 18.6718 6.17863 18.3262" stroke="#333333" stroke-width="2" stroke-linecap="round" stroke-linejoin="round"/>
<circle cx="13.5" cy="4" r="3.5" fill="#C73636"/>
</svg>
