<svg width="60" height="60" viewBox="0 0 60 60" fill="none" xmlns="http://www.w3.org/2000/svg">
<circle cx="30" cy="30" r="29.25" stroke="url(#paint0_linear_42_28)" stroke-width="1.5"/>
<circle cx="30" cy="30" r="25" fill="url(#paint1_linear_42_28)"/>
<path d="M31.5 21H30H26C24.3431 21 23 22.3431 23 24V36C23 37.6569 24.3431 39 26 39H34C35.6569 39 37 37.6569 37 36V26.625M31.5 21L37 26.625M31.5 21V25.625C31.5 26.1773 31.9477 26.625 32.5 26.625H37" stroke="white" stroke-width="1.5" stroke-linecap="round" stroke-linejoin="round"/>
<path d="M27 31H33" stroke="white" stroke-width="1.5" stroke-linecap="round" stroke-linejoin="round"/>
<path d="M27 35H33" stroke="white" stroke-width="1.5" stroke-linecap="round" stroke-linejoin="round"/>
<defs>
<linearGradient id="paint0_linear_42_28" x1="-2.83019" y1="9.17481e-07" x2="66.8702" y2="9.47821" gradientUnits="userSpaceOnUse">
<stop stop-color="#9C1303"/>
<stop offset="1" stop-color="#E81402"/>
</linearGradient>
<linearGradient id="paint1_linear_42_28" x1="2.64151" y1="5" x2="60.7252" y2="12.8985" gradientUnits="userSpaceOnUse">
<stop stop-color="#9C1303"/>
<stop offset="1" stop-color="#E81402"/>
</linearGradient>
</defs>
</svg>
