<svg width="20" height="20" viewBox="0 0 20 20" fill="none" xmlns="http://www.w3.org/2000/svg">
<path d="M4 5V3C4 1.89543 4.89543 1 6 1H14C15.1046 1 16 1.89543 16 3V5" stroke="#333333" stroke-width="2" stroke-linecap="round"/>
<path d="M5 15V15C3.11438 15 2.17157 15 1.58579 14.4142C1 13.8284 1 12.8856 1 11V9C1 7.11438 1 6.17157 1.58579 5.58579C2.17157 5 3.11438 5 5 5H15C16.8856 5 17.8284 5 18.4142 5.58579C19 6.17157 19 7.11438 19 9V11C19 12.8856 19 13.8284 18.4142 14.4142C17.8284 15 16.8856 15 15 15V15" stroke="#333333" stroke-width="2" stroke-linejoin="round"/>
<path d="M5 15C5 13.1144 5 12.1716 5.58579 11.5858C6.17157 11 7.11438 11 9 11H11C12.8856 11 13.8284 11 14.4142 11.5858C15 12.1716 15 13.1144 15 15C15 16.8856 15 17.8284 14.4142 18.4142C13.8284 19 12.8856 19 11 19H9C7.11438 19 6.17157 19 5.58579 18.4142C5 17.8284 5 16.8856 5 15Z" stroke="#333333" stroke-width="2" stroke-linejoin="round"/>
</svg>
