<svg width="18" height="20" viewBox="0 0 18 20" fill="none" xmlns="http://www.w3.org/2000/svg">
<path d="M4.88187 2.91846H3C1.89543 2.91846 1 3.81389 1 4.91846V16.2661C1 17.3707 1.89543 18.2661 3 18.2661H4.88187M10.7047 2.91846H12.5865C13.6911 2.91846 14.5865 3.81389 14.5865 4.91846V6.75537" stroke="#333333" stroke-width="1.5" stroke-linecap="round" stroke-linejoin="round"/>
<path d="M10.5991 17.6296L8.48745 18.0471L8.90977 15.9599C8.94871 15.7675 9.04442 15.5907 9.18483 15.4519L13.1308 11.5515L15.0718 9.63306L17 11.5389L15.059 13.4574L11.113 17.3578C10.9726 17.4965 10.7938 17.5911 10.5991 17.6296Z" stroke="#333333" stroke-width="1.5" stroke-linecap="round" stroke-linejoin="round"/>
<path d="M4.88184 3C4.88184 1.89543 5.77727 1 6.88184 1H8.70464C9.80921 1 10.7046 1.89543 10.7046 3V4.83691H4.88184V3Z" stroke="#333333" stroke-width="1.5" stroke-linecap="round" stroke-linejoin="round"/>
</svg>
