<svg width="16" height="19" viewBox="0 0 16 19" fill="none" xmlns="http://www.w3.org/2000/svg">
<path d="M15.0001 9.5L8.77783 9.5" stroke="url(#paint0_linear_128_2131)" stroke-width="1.5" stroke-linecap="round" stroke-linejoin="round"/>
<path d="M12.6665 12.1666L14.9321 9.57733V9.57733C14.9709 9.53303 14.9709 9.46689 14.9321 9.42259V9.42259L12.6665 6.83329" stroke="url(#paint1_linear_128_2131)" stroke-width="1.5" stroke-linecap="round" stroke-linejoin="round"/>
<path d="M11.1111 3.27778V2.83333V2.83333C11.1111 2.09695 10.5142 1.5 9.77778 1.5H3C1.89543 1.5 1 2.39543 1 3.5V15.5C1 16.6046 1.89543 17.5 3 17.5H9.77778C10.5142 17.5 11.1111 16.903 11.1111 16.1667V16.1667V15.7222" stroke="url(#paint2_linear_128_2131)" stroke-width="1.5" stroke-linecap="round" stroke-linejoin="round"/>
<defs>
<linearGradient id="paint0_linear_128_2131" x1="8.48433" y1="9.5" x2="12.7746" y2="13.1301" gradientUnits="userSpaceOnUse">
<stop stop-color="#9C1303"/>
<stop offset="1" stop-color="#E81402"/>
</linearGradient>
<linearGradient id="paint1_linear_128_2131" x1="12.6665" y1="12.4182" x2="14.4551" y2="6.66396" gradientUnits="userSpaceOnUse">
<stop stop-color="#9C1303"/>
<stop offset="1" stop-color="#E81402"/>
</linearGradient>
<linearGradient id="paint2_linear_128_2131" x1="0.523061" y1="1.5" x2="12.3984" y2="2.52051" gradientUnits="userSpaceOnUse">
<stop stop-color="#9C1303"/>
<stop offset="1" stop-color="#E81402"/>
</linearGradient>
</defs>
</svg>
