<svg width="16" height="20" viewBox="0 0 16 20" fill="none" xmlns="http://www.w3.org/2000/svg">
<path d="M8 2C5.23858 2 3 4.23858 3 7V9.75635C3 10.604 2.40857 11.3195 1.82474 11.934C1.31363 12.472 1 13.1994 1 14C1 14.5523 1.44772 15 2 15H14C14.5523 15 15 14.5523 15 14C15 13.1994 14.6864 12.472 14.1753 11.934C13.5914 11.3195 13 10.604 13 9.75635V7C13 4.23858 10.7614 2 8 2ZM8 2V1M9.79759 17.8767C9.63122 18.2179 9.37122 18.5046 9.04797 18.7035C8.72472 18.9023 8.35156 19.0051 7.97208 18.9998C7.59259 18.9945 7.22244 18.8813 6.90487 18.6735C6.5873 18.4657 6.33542 18.1718 6.17863 17.8262" stroke="#0395C4" stroke-width="2" stroke-linecap="round" stroke-linejoin="round"/>
</svg>
