<svg width="13" height="17" viewBox="0 0 13 17" fill="none" xmlns="http://www.w3.org/2000/svg">
<path d="M4.11111 3.05566H3C1.89543 3.05566 1 3.95109 1 5.05566V13.5001C1 14.6047 1.89543 15.5001 3 15.5001H9.88889C10.9935 15.5001 11.8889 14.6047 11.8889 13.5001V5.05566C11.8889 3.95109 10.9935 3.05566 9.88889 3.05566H8.77778" stroke="black" stroke-width="1.5" stroke-linecap="round" stroke-linejoin="round"/>
<path d="M6.44482 8.5H8.77816" stroke="black" stroke-width="1.5" stroke-linecap="round" stroke-linejoin="round"/>
<path d="M6.44482 11.6112H8.77816" stroke="black" stroke-width="1.5" stroke-linecap="round" stroke-linejoin="round"/>
<path d="M4.11133 3.5C4.11133 2.39543 5.00676 1.5 6.11133 1.5H6.77799C7.88256 1.5 8.778 2.39543 8.778 3.5V4.61111H4.11133V3.5Z" stroke="black" stroke-width="1.5" stroke-linecap="round" stroke-linejoin="round"/>
<circle cx="4.11127" cy="8.49995" r="0.777778" fill="black"/>
<circle cx="4.11127" cy="11.6112" r="0.777778" fill="black"/>
</svg>
