<svg width="18" height="18" viewBox="0 0 18 18" fill="none" xmlns="http://www.w3.org/2000/svg">
<path d="M14.6569 14.6569C13.7266 15.5871 12.5812 16.2736 11.3223 16.6555C10.0633 17.0374 8.72961 17.1029 7.43928 16.8463C6.14895 16.5896 4.94183 16.0187 3.92485 15.1841C2.90788 14.3495 2.11242 13.2769 1.60896 12.0615C1.1055 10.846 0.90957 9.52514 1.03852 8.21586C1.16747 6.90659 1.61733 5.64933 2.34824 4.55544C3.07916 3.46155 4.06856 2.5648 5.22883 1.94463C6.38909 1.32446 7.68439 1 9 1L9 9L14.6569 14.6569Z" stroke="#333333" stroke-width="2" stroke-linecap="round" stroke-linejoin="round"/>
<path d="M9 1C10.5823 1 12.129 1.46919 13.4446 2.34824C14.7602 3.22729 15.7855 4.47672 16.391 5.93853C16.9965 7.40034 17.155 9.00887 16.8463 10.5607C16.5376 12.1126 15.7757 13.538 14.6569 14.6569L9 9L9 1Z" stroke="#333333" stroke-width="2" stroke-linecap="round" stroke-linejoin="round"/>
</svg>
